<svg width="32" height="32" viewBox="0 0 32 32" fill="none" xmlns="http://www.w3.org/2000/svg">
<path fill-rule="evenodd" clip-rule="evenodd" d="M7.41436 7.43249C7.67976 7.16691 8.03967 7.01771 8.41494 7.01771C8.79021 7.01771 9.15012 7.16691 9.41552 7.43249L15.4912 13.5142L21.5668 7.43249C21.6973 7.29719 21.8535 7.18926 22.0262 7.11501C22.1988 7.04077 22.3845 7.00169 22.5725 7.00005C22.7604 6.99842 22.9467 7.03426 23.1207 7.10549C23.2946 7.17673 23.4526 7.28192 23.5855 7.41493C23.7184 7.54795 23.8235 7.70612 23.8946 7.88022C23.9658 8.05433 24.0016 8.24087 23.9999 8.42898C23.9983 8.61708 23.9593 8.80298 23.8851 8.97581C23.8109 9.14865 23.7031 9.30497 23.5679 9.43566L17.4923 15.5174L23.5679 21.5992C23.8257 21.8663 23.9684 22.2242 23.9652 22.5956C23.9619 22.9671 23.8131 23.3224 23.5507 23.5851C23.2883 23.8477 22.9333 23.9967 22.5623 23.9999C22.1912 24.0032 21.8337 23.8604 21.5668 23.6023L15.4912 17.5206L9.41552 23.6023C9.1486 23.8604 8.79111 24.0032 8.42003 23.9999C8.04896 23.9967 7.694 23.8477 7.4316 23.5851C7.16921 23.3224 7.02037 22.9671 7.01714 22.5956C7.01392 22.2242 7.15657 21.8663 7.41436 21.5992L13.49 15.5174L7.41436 9.43566C7.14905 9.16999 7 8.80972 7 8.43407C7 8.05843 7.14905 7.69816 7.41436 7.43249Z" fill="white"/>
</svg>
